<svg enable-background="new 0 0 46 46" viewBox="0 0 46 46" xmlns="http://www.w3.org/2000/svg" xmlns:xlink="http://www.w3.org/1999/xlink"><clipPath id="a"><path d="m0 0h46v46h-46z"/></clipPath><path clip-path="url(#a)" d="m23 0c12.7 0 23 10.3 23 23s-10.3 23-23 23-23-10.3-23-23 10.3-23 23-23" fill="#eaf7fd"/><path clip-path="url(#a)" d="m23.3 23.6c.6 0 1.2-.2 1.6-.7.5-.5.7-1 .7-1.6s-.2-1.2-.7-1.6c-.5-.5-1-.7-1.6-.7s-1.2.2-1.6.7c-.5.5-.7 1-.7 1.6s.2 1.2.7 1.6c.4.4 1 .7 1.6.7m0 8.5c2.4-2.2 4.1-4.2 5.3-5.9 1.1-1.8 1.7-3.4 1.7-4.7 0-2.1-.7-3.9-2-5.2-1.4-1.4-3-2-5-2s-3.6.7-5 2c-1.4 1.4-2 3.1-2 5.2 0 1.4.6 3 1.7 4.7 1.2 1.8 3 3.8 5.3 5.9m0 2.7c-.2 0-.3 0-.5-.1s-.3-.1-.4-.2c-2.8-2.5-5-4.8-6.4-7s-2.1-4.2-2.1-6c0-2.9.9-5.2 2.8-7 1.9-1.7 4-2.6 6.5-2.6s4.6.9 6.5 2.6 2.8 4.1 2.8 7c0 1.9-.7 3.9-2.1 6s-3.5 4.5-6.4 7c-.1.1-.3.2-.4.2 0 .1-.1.1-.3.1" fill="#55c1ff"/></svg>