<?xml version="1.0" encoding="utf-8"?>
<!-- Generator: Adobe Illustrator 24.0.1, SVG Export Plug-In . SVG Version: 6.00 Build 0)  -->
<svg version="1.1" id="Layer_1" xmlns="http://www.w3.org/2000/svg" xmlns:xlink="http://www.w3.org/1999/xlink" x="0px" y="0px"
	 viewBox="0 0 46 46" style="enable-background:new 0 0 46 46;" xml:space="preserve">
<style type="text/css">
	.st0{clip-path:url(#SVGID_2_);fill:#EAF7FD;}
	.st1{clip-path:url(#SVGID_2_);fill:#55C1FF;}
</style>
<g>
	<defs>
		<rect id="SVGID_1_" width="46" height="46"/>
	</defs>
	<clipPath id="SVGID_2_">
		<use xlink:href="#SVGID_1_"  style="overflow:visible;"/>
	</clipPath>
	<path class="st0" d="M23,0c12.7,0,23,10.3,23,23S35.7,46,23,46S0,35.7,0,23S10.3,0,23,0"/>
	<path class="st1" d="M31.2,26.4l-4.7-1.1v-1.8c1-0.8,1.7-1.9,2-3.2h0.2c0.4,0,0.8-0.1,1.1-0.4c0.3-0.2,0.5-0.6,0.6-0.9
		c0.1-0.4,0.1-0.8-0.1-1.1c-0.1-0.4-0.4-0.7-0.7-0.8V16c0-1.7-0.7-3.4-1.9-4.6c-1.2-1.2-2.9-1.9-4.6-1.9c-1.7,0-3.4,0.7-4.6,1.9
		c-1.2,1.2-1.9,2.9-1.9,4.6v1.1c-0.3,0.2-0.6,0.5-0.7,0.8s-0.2,0.7-0.1,1.1c0.1,0.4,0.3,0.7,0.6,0.9c0.3,0.2,0.7,0.4,1.1,0.4h0.2
		c0.3,1.3,1,2.4,2,3.2v1.8l-4.7,1.1c-0.8,0.2-1.5,0.6-1.9,1.2c-0.5,0.6-0.8,1.4-0.8,2.2v4.1c0,0.1,0,0.2,0.1,0.3
		c0.1,0.1,0.2,0.1,0.3,0.1h0.4v2.2h0.9v-2.2h2.6v2.2h0.9v-6.1h-0.9v3.1h-3.5v-3.7c0-0.6,0.2-1.2,0.6-1.6c0.4-0.5,0.9-0.8,1.5-0.9
		l4.1-1v4.7c-0.4,0.1-0.8,0.4-1,0.7c-0.2,0.4-0.3,0.8-0.3,1.2c0.1,0.4,0.3,0.8,0.6,1.1c0.3,0.3,0.7,0.4,1.2,0.4
		c0.4,0,0.8-0.2,1.2-0.4c0.3-0.3,0.5-0.7,0.6-1.1c0.1-0.4,0-0.9-0.3-1.2c-0.2-0.4-0.6-0.6-1-0.7v-4.6l2.7,3.5c0,0.1,0.1,0.1,0.2,0.1
		c0.1,0,0.1,0,0.2,0c0.1,0,0.1,0,0.2,0c0.1,0,0.1-0.1,0.2-0.1l2.9-3.7l4.8,1.1c0.6,0.1,1.1,0.5,1.4,0.9c0.4,0.5,0.6,1,0.6,1.6v3.7
		h-3.5v-3.1h-0.9v6.1h0.9v-2.2h2.6v2.2h0.9v-2.2h0.4c0.1,0,0.2,0,0.3-0.1c0.1-0.1,0.1-0.2,0.1-0.3v-4.1c0-0.8-0.3-1.6-0.8-2.2
		C32.7,27,32,26.6,31.2,26.4 M27.8,17.1l-1.5,1.5h-6.6l-1.5-1.5v-0.3c1.8-0.1,3.5-0.8,4.8-2c1.3,1.2,3,1.9,4.8,2V17.1z M19.9,22.8
		v-3.3h6.1v3.3c-0.9,0.7-1.9,1.1-3.1,1.1S20.8,23.5,19.9,22.8 M26.9,21.8v-2.6l0.9-0.9v0.7C27.8,20,27.5,21,26.9,21.8 M28.7,19.5
		v-1.8c0.2,0,0.5,0.1,0.6,0.3c0.2,0.2,0.3,0.4,0.3,0.6c0,0.2-0.1,0.5-0.3,0.6C29.1,19.4,28.9,19.5,28.7,19.5 M17.3,16
		c0-1.5,0.6-3,1.7-4c1.1-1.1,2.5-1.7,4-1.7c1.5,0,3,0.6,4,1.7c1.1,1.1,1.7,2.5,1.7,4v0.4c0-0.1,0-0.2-0.1-0.3
		C28.5,16,28.4,16,28.2,16c-0.9,0-1.8-0.2-2.7-0.5s-1.6-0.9-2.3-1.5c-0.1-0.1-0.2-0.1-0.3-0.1c-0.1,0-0.2,0.1-0.3,0.1
		c-0.6,0.6-1.4,1.2-2.3,1.5c-0.8,0.4-1.8,0.5-2.7,0.5c-0.1,0-0.2,0-0.3,0.1c-0.1,0.1-0.1,0.2-0.1,0.3V16z M17.3,19.5
		c-0.2,0-0.5-0.1-0.6-0.3c-0.2-0.2-0.3-0.4-0.3-0.6c0-0.2,0.1-0.5,0.3-0.6c0.2-0.2,0.4-0.3,0.6-0.3v1.3
		C17.3,19.2,17.3,19.4,17.3,19.5L17.3,19.5z M18.2,19.1v-0.7l0.9,0.9v2.6C18.5,21,18.2,20,18.2,19.1 M20.4,32.6
		c0,0.2-0.1,0.3-0.1,0.5c-0.1,0.1-0.2,0.3-0.4,0.3c-0.2,0.1-0.3,0.1-0.5,0c-0.2,0-0.3-0.1-0.4-0.2c-0.1-0.1-0.2-0.3-0.2-0.4
		c0-0.2,0-0.3,0-0.5c0.1-0.2,0.2-0.3,0.3-0.4c0.1-0.1,0.3-0.1,0.5-0.1c0.2,0,0.5,0.1,0.6,0.3C20.3,32.2,20.4,32.4,20.4,32.6
		 M23,28.8l-2.6-3.4v-1.4c0.8,0.4,1.7,0.6,2.6,0.6c0.9,0,1.8-0.2,2.6-0.6v1.4L23,28.8z"/>
</g>
</svg>
