<svg enable-background="new 0 0 220 45" viewBox="0 0 220 45" xmlns="http://www.w3.org/2000/svg" xmlns:xlink="http://www.w3.org/1999/xlink"><clipPath id="a"><path d="m0 0h220v45h-220z"/></clipPath><g fill="#e73d11"><path clip-path="url(#a)" d="m61.8 20.2c4.4 0 7.4-2.3 7.4-7.6v-10.9h-4.7v11.1c0 2.2-1 3.1-2.7 3.1-1.6 0-2.7-1-2.7-3.2v-11h-4.7v11c.1 5.2 3 7.5 7.4 7.5"/><path clip-path="url(#a)" d="m76.3 14.3h1.6l3.1 5.6h5.2l-3.7-6.6c1.9-1 3.2-2.6 3.2-5.3v-.2c0-1.8-.6-3.2-1.6-4.3-1.2-1.2-3-1.8-5.4-1.8h-7.1v18.2h4.6zm0-8.5h2.3c1.5 0 2.5.8 2.5 2.3v.1c0 1.5-.9 2.4-2.5 2.4h-2.3z"/><path clip-path="url(#a)" d="m102.6 17.9v-8.6h-7.2v3.6h2.9v2.7c-.5.3-1.2.5-2.1.5-2.3 0-4.1-1.8-4.1-5.2v-.3c0-3 1.8-5 4-5 1.5 0 2.6.6 3.5 1.5l2.6-3.6c-1.8-1.4-3.6-2.2-6.2-2.2-5 0-8.7 3.8-8.7 9.2v.5c0 5.7 3.7 9.2 8.7 9.2 2.7 0 4.9-1 6.6-2.3"/><path clip-path="url(#a)" d="m117.5 15.8h-8v-3.1h7.1v-3.9h-7.1v-3h7.9v-4.1h-12.5v18.2h12.6z"/><path clip-path="url(#a)" d="m134.6 1.7h-4.6v9.2l-6-9.2h-4.4v18.2h4.6v-9.5l6.2 9.5h4.2z"/><path clip-path="url(#a)" d="m136.4 5.9h4.4v14h4.7v-14h4.4v-4.2h-13.5z"/><path clip-path="url(#a)" d="m165.9 15.9c-2.1 0-3.7-1.8-3.7-5v-.1c0-3.1 1.6-5 3.7-5 1.4 0 2.4.8 3.2 1.7l3-3.2c-1.5-1.7-3.4-2.9-6.2-2.9-4.7 0-8.4 3.7-8.4 9.3v.3c0 5.7 3.6 9.2 8.2 9.2 3 0 5-1.3 6.5-3.1l-2.9-3c-1 .9-1.9 1.8-3.4 1.8"/><path clip-path="url(#a)" d="m178.8 1.6-6.3 18.3h4.8l1-3.3h5.7l1.1 3.3h4.9l-6.4-18.3h-4.8zm.7 11.3 1.7-5.3 1.7 5.3z"/><path clip-path="url(#a)" d="m205.4 8v-.2c0-1.8-.6-3.2-1.6-4.3-1.2-1.2-3-1.8-5.4-1.8h-7.1v18.2h4.6v-5.6h1.6l3.1 5.6h5.2l-3.7-6.6c2-1 3.3-2.6 3.3-5.3m-4.7.2c0 1.5-.9 2.4-2.5 2.4h-2.3v-4.8h2.3c1.5 0 2.5.8 2.5 2.4z"/><path clip-path="url(#a)" d="m212.1 15.8v-3.1h7v-3.9h-7v-3h7.8v-4.1h-12.4v18.2h12.5v-4.1z"/><path clip-path="url(#a)" d="m64.1 41c-3.5 0-6-2.9-6-6.5s2.5-6.4 6-6.4c2.1 0 3.6.9 5.1 2.3l2-2.4c-1.7-1.7-3.7-2.8-7.1-2.8-5.5 0-9.3 4.2-9.3 9.4s3.9 9.4 9.2 9.4c3.4 0 5.4-1.2 7.3-3.2l-2-2.1c-1.5 1.3-2.9 2.3-5.2 2.3"/><path clip-path="url(#a)" d="m79.1 25.4h-3.1v18.2h12.6v-2.9h-9.5z"/><path clip-path="url(#a)" d="m93.3 25.4h3.2v18.2h-3.2z"/><path clip-path="url(#a)" d="m115.2 38-9.7-12.6h-2.9v18.2h3.1v-12.9l10 12.9h2.6v-18.2h-3.1z"/><path clip-path="url(#a)" d="m124.4 25.4h3.2v18.2h-3.2z"/><path clip-path="url(#a)" d="m142.1 41c-3.5 0-6-2.9-6-6.5s2.5-6.4 6-6.4c2.1 0 3.6.9 5.1 2.3l2-2.4c-1.7-1.7-3.7-2.8-7.1-2.8-5.5 0-9.3 4.2-9.3 9.4s3.9 9.4 9.2 9.4c3.4 0 5.4-1.2 7.3-3.2l-2-2.1c-1.5 1.3-2.9 2.3-5.2 2.3"/><path clip-path="url(#a)" d="m43.4 12.3h-10.9v-11c0-.7-.6-1.3-1.3-1.3h-17.7c-.7 0-1.3.6-1.3 1.3v11h-10.9c-.7 0-1.3.6-1.3 1.3v17.9c0 .7.6 1.3 1.3 1.3h10.9v11c0 .7.6 1.3 1.3 1.3h17.8c.7 0 1.3-.6 1.3-1.3v-11h10.9c.7 0 1.3-.6 1.3-1.3v-17.9c-.1-.7-.7-1.3-1.4-1.3"/></g></svg>